<svg width="149" height="88" viewBox="0 0 149 88" fill="none" xmlns="http://www.w3.org/2000/svg">
<path d="M16.6 43.3469C16.6 43.3469 21.4 41.2485 24.7 36.5522C28.1 31.7559 29.3 27.4592 30.1 22.3632C32.2 10.0727 36.3 1.97903 39 1.97903C41.7 1.97903 42.4 7.37484 45.8 22.3632C47.1 28.1587 50.5 35.2532 55.3 43.3469"/>
<path d="M16.6 43.3469C16.6 43.3469 21.4 41.2485 24.7 36.5522C28.1 31.7559 29.3 27.4592 30.1 22.3632C32.2 10.0727 36.3 1.97903 39 1.97903C41.7 1.97903 42.4 7.37484 45.8 22.3632C47.1 28.1587 50.5 35.2532 55.3 43.3469" stroke="white" stroke-width="2" stroke-miterlimit="10" stroke-linecap="round" stroke-linejoin="round"/>
<path d="M104.7 43.5467C104.7 43.5467 99.7 45.745 96.3 50.6412C92.7 55.6373 91.6 60.1338 90.7 65.4297C88.6 78.1199 84.4 86.6132 81.6 86.6132C78.8 86.6132 78.1 80.9177 74.6 65.4297C73.2 59.3345 69.7 52.0401 64.8 43.5467" stroke="white" stroke-width="2" stroke-miterlimit="10" stroke-linecap="round" stroke-linejoin="round"/>
<path d="M27.2 37.5514C26.6 37.5514 26.1 38.051 26.1 38.6505V41.2485C26.1 41.8481 26.6 42.3477 27.2 42.3477C27.8 42.3477 28.3 41.8481 28.3 41.2485V38.6505C28.3 38.051 27.8 37.5514 27.2 37.5514Z" fill="white"/>
<path d="M38.2 7.17499C37.6 7.17499 37.1 7.6746 37.1 8.27413V41.3484C37.1 41.948 37.6 42.4476 38.2 42.4476C38.8 42.4476 39.3 41.948 39.3 41.3484V8.27413C39.4 7.6746 38.8 7.17499 38.2 7.17499Z" fill="white"/>
<path d="M32.6 26.0603C32 26.0603 31.5 26.5599 31.5 27.1594V41.3484C31.5 41.948 32 42.4476 32.6 42.4476C33.2 42.4476 33.7 41.948 33.7 41.3484V27.1594C33.7 26.5599 33.2 26.0603 32.6 26.0603Z" fill="white"/>
<path d="M44.1 26.0603C43.5 26.0603 43 26.5599 43 27.1594V41.3484C43 41.948 43.5 42.4476 44.1 42.4476C44.7 42.4476 45.2 41.948 45.2 41.3484V27.1594C45.3 26.5599 44.8 26.0603 44.1 26.0603Z" fill="white"/>
<path d="M92.7 51.5405C93.3 51.5405 93.8 51.0409 93.8 50.4414V46.9441C93.8 46.3446 93.3 45.8449 92.7 45.8449C92.1 45.8449 91.6 46.3446 91.6 46.9441V50.4414C91.5 51.0409 92 51.5405 92.7 51.5405Z" fill="white"/>
<path d="M81.6 80.3181C82.2 80.3181 82.7 79.8185 82.7 79.219V46.9441C82.7 46.3446 82.2 45.8449 81.6 45.8449C81 45.8449 80.5 46.3446 80.5 46.9441V79.219C80.5 79.8185 81 80.3181 81.6 80.3181Z" fill="white"/>
<path d="M87.2 60.6334C87.8 60.6334 88.3 60.1338 88.3 59.5343V46.9441C88.3 46.3446 87.8 45.8449 87.2 45.8449C86.6 45.8449 86.1 46.3446 86.1 46.9441V59.4344C86.1 60.0339 86.6 60.6334 87.2 60.6334Z" fill="white"/>
<path d="M75.7 60.6334C76.3 60.6334 76.8 60.1338 76.8 59.5343V46.9441C76.8 46.3446 76.3 45.8449 75.7 45.8449C75.1 45.8449 74.6 46.3446 74.6 46.9441V59.4344C74.5 60.0339 75.1 60.6334 75.7 60.6334Z" fill="white"/>
<path d="M12.6062 46.403H6.68229V72H10.7047V62.3829H12.6062C16.6285 62.3829 18.6032 60.1523 18.6032 56.0567V52.7291C18.6032 48.6336 16.6285 46.403 12.6062 46.403ZM12.6062 50.0597C13.886 50.0597 14.5808 50.6448 14.5808 52.4732V56.3127C14.5808 58.1411 13.886 58.7261 12.6062 58.7261H10.7047V50.0597H12.6062ZM20.4621 46.403V65.8933C20.4621 69.9888 22.5098 72.3291 26.4591 72.3291C30.4083 72.3291 32.4561 69.9888 32.4561 65.8933V46.403H28.6531V66.1493C28.6531 67.9776 27.8486 68.6358 26.5688 68.6358C25.2889 68.6358 24.4845 67.9776 24.4845 66.1493V46.403H20.4621ZM41.2482 61.3955H43.0766V66.1127C43.0766 67.9411 42.2721 68.5993 40.9922 68.5993C39.7124 68.5993 38.9079 67.9411 38.9079 66.1127V52.2903C38.9079 50.462 39.7124 49.7672 40.9922 49.7672C42.2721 49.7672 43.0766 50.462 43.0766 52.2903V55.0329H46.8795V52.5463C46.8795 48.4508 44.8318 46.1105 40.8825 46.1105C36.9333 46.1105 34.8855 48.4508 34.8855 52.5463V65.8567C34.8855 69.9522 36.9333 72.2925 40.8825 72.2925C44.8318 72.2925 46.8795 69.9522 46.8795 65.8567V57.7388H41.2482V61.3955ZM53.4853 61.0299H58.0562V72H62.1517V46.403H58.0562V57.3732H53.4853V46.403H49.4629V72H53.4853V61.0299Z" fill="white"/>
<path d="M102.488 72H113.129V68.3433H106.51V46.403H102.488V72ZM123.802 46.403H117.914L113.819 72H117.512L118.207 67.356H123.144L123.838 72H127.897L123.802 46.403ZM120.657 50.9373L122.595 63.8821H118.719L120.657 50.9373ZM135.841 46.403H129.77V72H136.097C140.119 72 142.203 69.8791 142.203 65.9299V63.8455C142.203 61.1396 141.362 59.2015 139.205 58.3605C140.997 57.5194 141.801 55.8373 141.801 53.2045V52.2903C141.801 48.3411 140.009 46.403 135.841 46.403ZM135.585 60.4814C137.413 60.4814 138.181 61.2127 138.181 63.5896V65.8202C138.181 67.7216 137.45 68.3433 136.097 68.3433H133.793V60.4814H135.585ZM135.731 50.0597C137.157 50.0597 137.779 50.8642 137.779 52.6926V54.1187C137.779 56.1664 136.864 56.8247 135.365 56.8247H133.793V50.0597H135.731Z" fill="white"/>
<path d="M1 43.3469H147.5" stroke="white" stroke-width="2" stroke-miterlimit="10" stroke-linecap="round" stroke-linejoin="round"/>
</svg>
