<svg width="149" height="88" viewBox="0 0 149 88" fill="none" xmlns="http://www.w3.org/2000/svg">
<path d="M16.6 43.3469C16.6 43.3469 21.4 41.2485 24.7 36.5522C28.1 31.7559 29.3 27.4592 30.1 22.3632C32.2 10.0727 36.3 1.97903 39 1.97903C41.7 1.97903 42.4 7.37484 45.8 22.3632C47.1 28.1587 50.5 35.2532 55.3 43.3469"/>
<path d="M16.6 43.3469C16.6 43.3469 21.4 41.2485 24.7 36.5522C28.1 31.7559 29.3 27.4592 30.1 22.3632C32.2 10.0727 36.3 1.97903 39 1.97903C41.7 1.97903 42.4 7.37484 45.8 22.3632C47.1 28.1587 50.5 35.2532 55.3 43.3469" stroke="black" stroke-width="2" stroke-miterlimit="10" stroke-linecap="round" stroke-linejoin="round"/>
<path d="M104.7 43.5467C104.7 43.5467 99.7 45.745 96.3 50.6412C92.7 55.6373 91.6 60.1338 90.7 65.4297C88.6 78.1199 84.4 86.6132 81.6 86.6132C78.8 86.6132 78.1 80.9177 74.6 65.4297C73.2 59.3345 69.7 52.0401 64.8 43.5467" stroke="black" stroke-width="2" stroke-miterlimit="10" stroke-linecap="round" stroke-linejoin="round"/>
<path d="M27.2 37.5514C26.6 37.5514 26.1 38.051 26.1 38.6505V41.2485C26.1 41.8481 26.6 42.3477 27.2 42.3477C27.8 42.3477 28.3 41.8481 28.3 41.2485V38.6505C28.3 38.051 27.8 37.5514 27.2 37.5514Z" fill="black"/>
<path d="M38.2 7.17499C37.6 7.17499 37.1 7.6746 37.1 8.27413V41.3484C37.1 41.948 37.6 42.4476 38.2 42.4476C38.8 42.4476 39.3 41.948 39.3 41.3484V8.27413C39.4 7.6746 38.8 7.17499 38.2 7.17499Z" fill="black"/>
<path d="M32.6 26.0603C32 26.0603 31.5 26.5599 31.5 27.1594V41.3484C31.5 41.948 32 42.4476 32.6 42.4476C33.2 42.4476 33.7 41.948 33.7 41.3484V27.1594C33.7 26.5599 33.2 26.0603 32.6 26.0603Z" fill="black"/>
<path d="M44.1 26.0603C43.5 26.0603 43 26.5599 43 27.1594V41.3484C43 41.948 43.5 42.4476 44.1 42.4476C44.7 42.4476 45.2 41.948 45.2 41.3484V27.1594C45.3 26.5599 44.8 26.0603 44.1 26.0603Z" fill="black"/>
<path d="M92.7 51.5405C93.3 51.5405 93.8 51.0409 93.8 50.4414V46.9441C93.8 46.3446 93.3 45.8449 92.7 45.8449C92.1 45.8449 91.6 46.3446 91.6 46.9441V50.4414C91.5 51.0409 92 51.5405 92.7 51.5405Z" fill="black"/>
<path d="M81.6 80.3181C82.2 80.3181 82.7 79.8185 82.7 79.219V46.9441C82.7 46.3446 82.2 45.8449 81.6 45.8449C81 45.8449 80.5 46.3446 80.5 46.9441V79.219C80.5 79.8185 81 80.3181 81.6 80.3181Z" fill="black"/>
<path d="M87.2 60.6334C87.8 60.6334 88.3 60.1338 88.3 59.5343V46.9441C88.3 46.3446 87.8 45.8449 87.2 45.8449C86.6 45.8449 86.1 46.3446 86.1 46.9441V59.4344C86.1 60.0339 86.6 60.6334 87.2 60.6334Z" fill="black"/>
<path d="M75.7 60.6334C76.3 60.6334 76.8 60.1338 76.8 59.5343V46.9441C76.8 46.3446 76.3 45.8449 75.7 45.8449C75.1 45.8449 74.6 46.3446 74.6 46.9441V59.4344C74.5 60.0339 75.1 60.6334 75.7 60.6334Z" fill="black"/>
<path d="M12.6062 46.403H6.68229V72H10.7047V62.3829H12.6062C16.6285 62.3829 18.6032 60.1523 18.6032 56.0567V52.7291C18.6032 48.6336 16.6285 46.403 12.6062 46.403ZM12.6062 50.0597C13.886 50.0597 14.5808 50.6448 14.5808 52.4732V56.3127C14.5808 58.1411 13.886 58.7261 12.6062 58.7261H10.7047V50.0597H12.6062ZM20.4621 46.403V65.8933C20.4621 69.9888 22.5098 72.3291 26.4591 72.3291C30.4083 72.3291 32.4561 69.9888 32.4561 65.8933V46.403H28.6531V66.1493C28.6531 67.9776 27.8486 68.6358 26.5688 68.6358C25.2889 68.6358 24.4845 67.9776 24.4845 66.1493V46.403H20.4621ZM41.2482 61.3955H43.0766V66.1127C43.0766 67.9411 42.2721 68.5993 40.9922 68.5993C39.7124 68.5993 38.9079 67.9411 38.9079 66.1127V52.2903C38.9079 50.462 39.7124 49.7672 40.9922 49.7672C42.2721 49.7672 43.0766 50.462 43.0766 52.2903V55.0329H46.8795V52.5463C46.8795 48.4508 44.8318 46.1105 40.8825 46.1105C36.9333 46.1105 34.8855 48.4508 34.8855 52.5463V65.8567C34.8855 69.9522 36.9333 72.2925 40.8825 72.2925C44.8318 72.2925 46.8795 69.9522 46.8795 65.8567V57.7388H41.2482V61.3955ZM53.4853 61.0299H58.0562V72H62.1517V46.403H58.0562V57.3732H53.4853V46.403H49.4629V72H53.4853V61.0299Z" fill="black"/>
<path d="M102.488 72H113.129V68.3433H106.51V46.403H102.488V72ZM123.802 46.403H117.914L113.819 72H117.512L118.207 67.356H123.144L123.838 72H127.897L123.802 46.403ZM120.657 50.9373L122.595 63.8821H118.719L120.657 50.9373ZM135.841 46.403H129.77V72H136.097C140.119 72 142.203 69.8791 142.203 65.9299V63.8455C142.203 61.1396 141.362 59.2015 139.205 58.3605C140.997 57.5194 141.801 55.8373 141.801 53.2045V52.2903C141.801 48.3411 140.009 46.403 135.841 46.403ZM135.585 60.4814C137.413 60.4814 138.181 61.2127 138.181 63.5896V65.8202C138.181 67.7216 137.45 68.3433 136.097 68.3433H133.793V60.4814H135.585ZM135.731 50.0597C137.157 50.0597 137.779 50.8642 137.779 52.6926V54.1187C137.779 56.1664 136.864 56.8247 135.365 56.8247H133.793V50.0597H135.731Z" fill="black"/>
<path d="M1 43.3469H147.5" stroke="black" stroke-width="2" stroke-miterlimit="10" stroke-linecap="round" stroke-linejoin="round"/>
<path d="M93.6 37.9511H46.7V47.044H93.6V37.9511Z" stroke="black" stroke-miterlimit="10" stroke-linecap="round" stroke-linejoin="round"/>
<path d="M56.3028 39.5698H57.3436V45H58.3392V39.5698H59.3799V38.6647H56.3028V39.5698ZM59.5288 39.5698H60.5696V45H61.5651V39.5698H62.6059V38.6647H59.5288V39.5698ZM64.908 38.6647H63.4509L62.4372 45H63.3513L63.5233 43.8506H64.7451L64.917 45H65.9216L64.908 38.6647ZM64.1296 39.787L64.6093 42.9908H63.65L64.1296 39.787ZM68.3311 42.6378V43.5429C68.3311 43.9954 68.132 44.1583 67.8152 44.1583C67.4984 44.1583 67.2993 43.9954 67.2993 43.5429V40.1218C67.2993 39.6693 67.4984 39.4974 67.8152 39.4974C68.132 39.4974 68.3311 39.6693 68.3311 40.1218V40.8006H69.2723V40.1852C69.2723 39.1715 68.7655 38.5923 67.7881 38.5923C66.8106 38.5923 66.3038 39.1715 66.3038 40.1852V43.4795C66.3038 44.4932 66.8106 45.0724 67.7881 45.0724C68.7655 45.0724 69.2723 44.4932 69.2723 43.4795V42.6378H68.3311ZM71.8222 42.6378V43.5429C71.8222 43.9954 71.6231 44.1583 71.3063 44.1583C70.9896 44.1583 70.7905 43.9954 70.7905 43.5429V40.1218C70.7905 39.6693 70.9896 39.4974 71.3063 39.4974C71.6231 39.4974 71.8222 39.6693 71.8222 40.1218V40.8006H72.7634V40.1852C72.7634 39.1715 72.2566 38.5923 71.2792 38.5923C70.3017 38.5923 69.7949 39.1715 69.7949 40.1852V43.4795C69.7949 44.4932 70.3017 45.0724 71.2792 45.0724C72.2566 45.0724 72.7634 44.4932 72.7634 43.4795V42.6378H71.8222ZM75.3133 42.6378V43.5429C75.3133 43.9954 75.1142 44.1583 74.7974 44.1583C74.4807 44.1583 74.2816 43.9954 74.2816 43.5429V40.1218C74.2816 39.6693 74.4807 39.4974 74.7974 39.4974C75.1142 39.4974 75.3133 39.6693 75.3133 40.1218V40.8006H76.2546V40.1852C76.2546 39.1715 75.7477 38.5923 74.7703 38.5923C73.7928 38.5923 73.286 39.1715 73.286 40.1852V43.4795C73.286 44.4932 73.7928 45.0724 74.7703 45.0724C75.7477 45.0724 76.2546 44.4932 76.2546 43.4795V42.6378H75.3133ZM78.3519 42.3754H78.8044V43.5429C78.8044 43.9954 78.6053 44.1583 78.2886 44.1583C77.9718 44.1583 77.7727 43.9954 77.7727 43.5429V40.1218C77.7727 39.6693 77.9718 39.4974 78.2886 39.4974C78.6053 39.4974 78.8044 39.6693 78.8044 40.1218V40.8006H79.7457V40.1852C79.7457 39.1715 79.2389 38.5923 78.2614 38.5923C77.284 38.5923 76.7771 39.1715 76.7771 40.1852V43.4795C76.7771 44.4932 77.284 45.0724 78.2614 45.0724C79.2389 45.0724 79.7457 44.4932 79.7457 43.4795V41.4703H78.3519V42.3754Z" fill="#7C7C7C"/>
</svg>
